<svg id="visual" viewBox="0 0 540 960" width="540" height="960" xmlns="http://www.w3.org/2000/svg" xmlns:xlink="http://www.w3.org/1999/xlink" version="1.1"><path d="M0 668L15 673.8C30 679.7 60 691.3 90 693.8C120 696.3 150 689.7 180 682.3C210 675 240 667 270 666.7C300 666.3 330 673.7 360 678.8C390 684 420 687 450 683C480 679 510 668 525 662.5L540 657L540 961L525 961C510 961 480 961 450 961C420 961 390 961 360 961C330 961 300 961 270 961C240 961 210 961 180 961C150 961 120 961 90 961C60 961 30 961 15 961L0 961Z" fill="#2c69f6"></path><path d="M0 720L15 718.7C30 717.3 60 714.7 90 717C120 719.3 150 726.7 180 727.5C210 728.3 240 722.7 270 725.2C300 727.7 330 738.3 360 739.7C390 741 420 733 450 728.7C480 724.3 510 723.7 525 723.3L540 723L540 961L525 961C510 961 480 961 450 961C420 961 390 961 360 961C330 961 300 961 270 961C240 961 210 961 180 961C150 961 120 961 90 961C60 961 30 961 15 961L0 961Z" fill="#245ee9"></path><path d="M0 772L15 776C30 780 60 788 90 789.2C120 790.3 150 784.7 180 786.8C210 789 240 799 270 802.2C300 805.3 330 801.7 360 795C390 788.3 420 778.7 450 773.3C480 768 510 767 525 766.5L540 766L540 961L525 961C510 961 480 961 450 961C420 961 390 961 360 961C330 961 300 961 270 961C240 961 210 961 180 961C150 961 120 961 90 961C60 961 30 961 15 961L0 961Z" fill="#1b53dd"></path><path d="M0 840L15 844C30 848 60 856 90 856.5C120 857 150 850 180 846.2C210 842.3 240 841.7 270 843C300 844.3 330 847.7 360 852C390 856.3 420 861.7 450 864.2C480 866.7 510 866.3 525 866.2L540 866L540 961L525 961C510 961 480 961 450 961C420 961 390 961 360 961C330 961 300 961 270 961C240 961 210 961 180 961C150 961 120 961 90 961C60 961 30 961 15 961L0 961Z" fill="#1048d0"></path><path d="M0 884L15 888.8C30 893.7 60 903.3 90 906.2C120 909 150 905 180 903C210 901 240 901 270 897.3C300 893.7 330 886.3 360 882.3C390 878.3 420 877.7 450 879.7C480 881.7 510 886.3 525 888.7L540 891L540 961L525 961C510 961 480 961 450 961C420 961 390 961 360 961C330 961 300 961 270 961C240 961 210 961 180 961C150 961 120 961 90 961C60 961 30 961 15 961L0 961Z" fill="#003ec4"></path></svg>